<svg width="1154" height="1154" viewBox="0 0 1154 1154" fill="none" xmlns="http://www.w3.org/2000/svg">
<path d="M577 745.291C683.264 745.291 769.333 659.222 769.333 552.958V288.5C769.333 182.236 683.264 96.1665 577 96.1665C470.736 96.1665 384.667 182.236 384.667 288.5V552.958C384.667 659.222 470.736 745.291 577 745.291Z" fill="#28484D" stroke="#28484D" stroke-width="30" stroke-linecap="round" stroke-linejoin="round"/>
<path d="M209.162 464.004V545.746C209.162 748.657 374.088 913.583 577 913.583C779.912 913.583 944.837 748.657 944.837 545.746V464.004" stroke="#28484D" stroke-width="65" stroke-linecap="round" stroke-linejoin="round"/>
<path d="M510.164 309.176C553.439 293.309 600.561 293.309 643.836 309.176" stroke="white" stroke-width="30" stroke-linecap="round" stroke-linejoin="round"/>
<path d="M538.533 411.113C564.017 404.381 590.463 404.381 615.948 411.113" stroke="white" stroke-width="30" stroke-linecap="round" stroke-linejoin="round"/>
<path d="M577 913.583V1057.83" stroke="#28484D" stroke-width="65" stroke-linecap="round" stroke-linejoin="round"/>
</svg>
